# xmcd
#
# Track frame offsets: 
#        150
#        24155
#        52519
#        83344
#        106156
#        130773
#        152685
#        171544
#        203004
#        222711
#
# Disc length: 3280 seconds
#
# Revision: 0
# Processed by: cddbd v1.5.2PL0 Copyright (c) Steve Scherf et al.
# Submitted via: ExactAudioCopy v1.0b3
#
DISCID=740cce0a
DTITLE=Ngoc Son - Muoi Nam Tinh Cu
DYEAR=2003
DGENRE=
TTITLE0=Muoi nam tinh cu
TTITLE1=Giot le dai trang
TTITLE2=Ao em chua mac mot lan
TTITLE3=Em ve keo troi mua
TTITLE4=Khoc tham
TTITLE5=Mua mua di qua
TTITLE6=Con duong mang ten em
TTITLE7=Xin hay quen toi
TTITLE8=Han tinh
TTITLE9=Dem buon tinh le
EXTD=
EXTT0=
EXTT1=
EXTT2=
EXTT3=
EXTT4=
EXTT5=
EXTT6=
EXTT7=
EXTT8=
EXTT9=
PLAYORDER=
